{
	"asset":{
		"generator":"Khronos glTF Blender I/O v4.4.56",
		"version":"2.0"
	},
	"scene":0,
	"scenes":[
		{
			"name":"Scene",
			"nodes":[
				0,
				1
			]
		}
	],
	"nodes":[
		{
			"mesh":0,
			"name":"Cube.001"
		},
		{
			"mesh":1,
			"name":"11803_Airplane_v1_l1",
			"rotation":[
				0,
				0.9999383687973022,
				0,
				0.011110426858067513
			],
			"translation":[
				-30,
				0,
				0
			]
		}
	],
	"materials":[
		{
			"name":"Material.001",
			"pbrMetallicRoughness":{
				"baseColorFactor":[
					0.800000011920929,
					0.800000011920929,
					0.800000011920929,
					1
				],
				"metallicFactor":0,
				"roughnessFactor":0.75
			}
		},
		{
			"name":"11803_Airplane_body",
			"pbrMetallicRoughness":{
				"baseColorTexture":{
					"index":0
				},
				"metallicFactor":0,
				"roughnessFactor":0.9490000009536743
			}
		},
		{
			"name":"11803_Airplane_wing_R",
			"pbrMetallicRoughness":{
				"baseColorTexture":{
					"index":1
				},
				"metallicFactor":0,
				"roughnessFactor":0.9700000286102295
			}
		},
		{
			"name":"11803_Airplane_wing_details_R",
			"pbrMetallicRoughness":{
				"baseColorTexture":{
					"index":2
				},
				"metallicFactor":0,
				"roughnessFactor":0.9700000286102295
			}
		},
		{
			"name":"11803_Airplane_tail",
			"pbrMetallicRoughness":{
				"baseColorTexture":{
					"index":3
				},
				"metallicFactor":0,
				"roughnessFactor":0.9700000286102295
			}
		},
		{
			"name":"11803_Airplane_wing_details_L",
			"pbrMetallicRoughness":{
				"baseColorTexture":{
					"index":4
				},
				"metallicFactor":0,
				"roughnessFactor":0.9700000286102295
			}
		},
		{
			"name":"11803_Airplane_wing_L",
			"pbrMetallicRoughness":{
				"baseColorTexture":{
					"index":5
				},
				"metallicFactor":0,
				"roughnessFactor":0.9700000286102295
			}
		}
	],
	"meshes":[
		{
			"name":"Cube-Mesh",
			"primitives":[
				{
					"attributes":{
						"POSITION":0,
						"NORMAL":1,
						"TEXCOORD_0":2
					},
					"indices":3,
					"material":0
				}
			]
		},
		{
			"name":"11803_Airplane_v1_l1-Mesh",
			"primitives":[
				{
					"attributes":{
						"POSITION":4,
						"NORMAL":5,
						"TEXCOORD_0":6
					},
					"indices":7,
					"material":1
				},
				{
					"attributes":{
						"POSITION":8,
						"NORMAL":9,
						"TEXCOORD_0":10
					},
					"indices":11,
					"material":2
				},
				{
					"attributes":{
						"POSITION":12,
						"NORMAL":13,
						"TEXCOORD_0":14
					},
					"indices":15,
					"material":3
				},
				{
					"attributes":{
						"POSITION":16,
						"NORMAL":17,
						"TEXCOORD_0":18
					},
					"indices":19,
					"material":4
				},
				{
					"attributes":{
						"POSITION":20,
						"NORMAL":21,
						"TEXCOORD_0":22
					},
					"indices":23,
					"material":5
				},
				{
					"attributes":{
						"POSITION":24,
						"NORMAL":25,
						"TEXCOORD_0":26
					},
					"indices":27,
					"material":6
				}
			]
		}
	],
	"textures":[
		{
			"sampler":0,
			"source":0
		},
		{
			"sampler":0,
			"source":1
		},
		{
			"sampler":0,
			"source":2
		},
		{
			"sampler":0,
			"source":3
		},
		{
			"sampler":0,
			"source":4
		},
		{
			"sampler":0,
			"source":5
		}
	],
	"images":[
		{
			"mimeType":"image/jpeg",
			"name":"11803_Airplane_body_diff",
			"uri":"11803_Airplane_body_diff.jpg"
		},
		{
			"mimeType":"image/jpeg",
			"name":"11803_Airplane_wing_big_R_diff",
			"uri":"11803_Airplane_wing_big_R_diff.jpg"
		},
		{
			"mimeType":"image/jpeg",
			"name":"11803_Airplane_wing_details_R_diff",
			"uri":"11803_Airplane_wing_details_R_diff.jpg"
		},
		{
			"mimeType":"image/jpeg",
			"name":"11803_Airplane_tail_diff",
			"uri":"11803_Airplane_tail_diff.jpg"
		},
		{
			"mimeType":"image/jpeg",
			"name":"11803_Airplane_wing_details_L_diff",
			"uri":"11803_Airplane_wing_details_L_diff.jpg"
		},
		{
			"mimeType":"image/jpeg",
			"name":"11803_Airplane_wing_big_L_diff",
			"uri":"11803_Airplane_wing_big_L_diff.jpg"
		}
	],
	"accessors":[
		{
			"bufferView":0,
			"componentType":5126,
			"count":24,
			"max":[
				5,
				55.59275817871094,
				1
			],
			"min":[
				-5,
				53.59275817871094,
				-1
			],
			"type":"VEC3"
		},
		{
			"bufferView":1,
			"componentType":5126,
			"count":24,
			"type":"VEC3"
		},
		{
			"bufferView":2,
			"componentType":5126,
			"count":24,
			"type":"VEC2"
		},
		{
			"bufferView":3,
			"componentType":5123,
			"count":36,
			"type":"SCALAR"
		},
		{
			"bufferView":4,
			"componentType":5126,
			"count":18809,
			"max":[
				11.646836280822754,
				132.91937255859375,
				413.5716247558594
			],
			"min":[
				-68.79000091552734,
				47.03234100341797,
				-269.88165283203125
			],
			"type":"VEC3"
		},
		{
			"bufferView":5,
			"componentType":5126,
			"count":18809,
			"type":"VEC3"
		},
		{
			"bufferView":6,
			"componentType":5126,
			"count":18809,
			"type":"VEC2"
		},
		{
			"bufferView":7,
			"componentType":5123,
			"count":76662,
			"type":"SCALAR"
		},
		{
			"bufferView":8,
			"componentType":5126,
			"count":4328,
			"max":[
				361.47222900390625,
				114.4078140258789,
				241.64602661132812
			],
			"min":[
				4.843452453613281,
				53.88386535644531,
				-96.18586730957031
			],
			"type":"VEC3"
		},
		{
			"bufferView":9,
			"componentType":5126,
			"count":4328,
			"type":"VEC3"
		},
		{
			"bufferView":10,
			"componentType":5126,
			"count":4328,
			"type":"VEC2"
		},
		{
			"bufferView":11,
			"componentType":5123,
			"count":21480,
			"type":"SCALAR"
		},
		{
			"bufferView":12,
			"componentType":5126,
			"count":33914,
			"max":[
				346.3846740722656,
				102.44811248779297,
				220.75881958007812
			],
			"min":[
				14.738269805908203,
				35.96849060058594,
				-52.76773452758789
			],
			"type":"VEC3"
		},
		{
			"bufferView":13,
			"componentType":5126,
			"count":33914,
			"type":"VEC3"
		},
		{
			"bufferView":14,
			"componentType":5126,
			"count":33914,
			"type":"VEC2"
		},
		{
			"bufferView":15,
			"componentType":5123,
			"count":167022,
			"type":"SCALAR"
		},
		{
			"bufferView":16,
			"componentType":5126,
			"count":6371,
			"max":[
				120.74593353271484,
				238.01467895507812,
				441.2188415527344
			],
			"min":[
				-177.8912811279297,
				96.95484161376953,
				249.71617126464844
			],
			"type":"VEC3"
		},
		{
			"bufferView":17,
			"componentType":5126,
			"count":6371,
			"type":"VEC3"
		},
		{
			"bufferView":18,
			"componentType":5126,
			"count":6371,
			"type":"VEC2"
		},
		{
			"bufferView":19,
			"componentType":5123,
			"count":32196,
			"type":"SCALAR"
		},
		{
			"bufferView":20,
			"componentType":5126,
			"count":33880,
			"max":[
				-71.88142395019531,
				102.44811248779297,
				220.7566375732422
			],
			"min":[
				-403.5284423828125,
				35.96849060058594,
				-52.76816940307617
			],
			"type":"VEC3"
		},
		{
			"bufferView":21,
			"componentType":5126,
			"count":33880,
			"type":"VEC3"
		},
		{
			"bufferView":22,
			"componentType":5126,
			"count":33880,
			"type":"VEC2"
		},
		{
			"bufferView":23,
			"componentType":5123,
			"count":167022,
			"type":"SCALAR"
		},
		{
			"bufferView":24,
			"componentType":5126,
			"count":4330,
			"max":[
				-61.98609161376953,
				114.4078140258789,
				241.6437530517578
			],
			"min":[
				-418.6163635253906,
				53.88386535644531,
				-96.18606567382812
			],
			"type":"VEC3"
		},
		{
			"bufferView":25,
			"componentType":5126,
			"count":4330,
			"type":"VEC3"
		},
		{
			"bufferView":26,
			"componentType":5126,
			"count":4330,
			"type":"VEC2"
		},
		{
			"bufferView":27,
			"componentType":5123,
			"count":21480,
			"type":"SCALAR"
		}
	],
	"bufferViews":[
		{
			"buffer":0,
			"byteLength":288,
			"byteOffset":0,
			"target":34962
		},
		{
			"buffer":0,
			"byteLength":288,
			"byteOffset":288,
			"target":34962
		},
		{
			"buffer":0,
			"byteLength":192,
			"byteOffset":576,
			"target":34962
		},
		{
			"buffer":0,
			"byteLength":72,
			"byteOffset":768,
			"target":34963
		},
		{
			"buffer":0,
			"byteLength":225708,
			"byteOffset":840,
			"target":34962
		},
		{
			"buffer":0,
			"byteLength":225708,
			"byteOffset":226548,
			"target":34962
		},
		{
			"buffer":0,
			"byteLength":150472,
			"byteOffset":452256,
			"target":34962
		},
		{
			"buffer":0,
			"byteLength":153324,
			"byteOffset":602728,
			"target":34963
		},
		{
			"buffer":0,
			"byteLength":51936,
			"byteOffset":756052,
			"target":34962
		},
		{
			"buffer":0,
			"byteLength":51936,
			"byteOffset":807988,
			"target":34962
		},
		{
			"buffer":0,
			"byteLength":34624,
			"byteOffset":859924,
			"target":34962
		},
		{
			"buffer":0,
			"byteLength":42960,
			"byteOffset":894548,
			"target":34963
		},
		{
			"buffer":0,
			"byteLength":406968,
			"byteOffset":937508,
			"target":34962
		},
		{
			"buffer":0,
			"byteLength":406968,
			"byteOffset":1344476,
			"target":34962
		},
		{
			"buffer":0,
			"byteLength":271312,
			"byteOffset":1751444,
			"target":34962
		},
		{
			"buffer":0,
			"byteLength":334044,
			"byteOffset":2022756,
			"target":34963
		},
		{
			"buffer":0,
			"byteLength":76452,
			"byteOffset":2356800,
			"target":34962
		},
		{
			"buffer":0,
			"byteLength":76452,
			"byteOffset":2433252,
			"target":34962
		},
		{
			"buffer":0,
			"byteLength":50968,
			"byteOffset":2509704,
			"target":34962
		},
		{
			"buffer":0,
			"byteLength":64392,
			"byteOffset":2560672,
			"target":34963
		},
		{
			"buffer":0,
			"byteLength":406560,
			"byteOffset":2625064,
			"target":34962
		},
		{
			"buffer":0,
			"byteLength":406560,
			"byteOffset":3031624,
			"target":34962
		},
		{
			"buffer":0,
			"byteLength":271040,
			"byteOffset":3438184,
			"target":34962
		},
		{
			"buffer":0,
			"byteLength":334044,
			"byteOffset":3709224,
			"target":34963
		},
		{
			"buffer":0,
			"byteLength":51960,
			"byteOffset":4043268,
			"target":34962
		},
		{
			"buffer":0,
			"byteLength":51960,
			"byteOffset":4095228,
			"target":34962
		},
		{
			"buffer":0,
			"byteLength":34640,
			"byteOffset":4147188,
			"target":34962
		},
		{
			"buffer":0,
			"byteLength":42960,
			"byteOffset":4181828,
			"target":34963
		}
	],
	"samplers":[
		{
			"magFilter":9729,
			"minFilter":9987
		}
	],
	"buffers":[
		{
			"byteLength":4224788,
			"uri":"passenger_plane.bin"
		}
	]
}
