{
    "asset": {
        "version": "2.0",
        "generator": "Open Asset Import Library (assimp v5.2.cf7d3637)"
    },
    "extensionsUsed": [
        "KHR_materials_volume",
        "FB_ngon_encoding"
    ],
    "accessors": [
        {
            "bufferView": 0,
            "byteOffset": 0,
            "componentType": 5126,
            "count": 36,
            "type": "VEC3",
            "max": [
                5.0,
                55.59275817871094,
                1.0
            ],
            "min": [
                -5.0,
                53.59275817871094,
                -1.0
            ]
        },
        {
            "bufferView": 1,
            "byteOffset": 0,
            "componentType": 5126,
            "count": 36,
            "type": "VEC3",
            "max": [
                1.0,
                1.0,
                1.0
            ],
            "min": [
                -1.0,
                -1.0,
                -1.0
            ]
        },
        {
            "bufferView": 2,
            "byteOffset": 0,
            "componentType": 5126,
            "count": 36,
            "type": "VEC2",
            "max": [
                0.875,
                1.0
            ],
            "min": [
                0.125,
                0.0
            ]
        },
        {
            "bufferView": 3,
            "byteOffset": 0,
            "componentType": 5125,
            "count": 36,
            "type": "SCALAR",
            "max": [
                35
            ],
            "min": [
                0
            ]
        },
        {
            "bufferView": 4,
            "byteOffset": 0,
            "componentType": 5126,
            "count": 76662,
            "type": "VEC3",
            "max": [
                11.646836280822754,
                132.91937255859376,
                413.5716247558594
            ],
            "min": [
                -68.79000091552735,
                47.03234100341797,
                -269.88165283203127
            ]
        },
        {
            "bufferView": 5,
            "byteOffset": 0,
            "componentType": 5126,
            "count": 76662,
            "type": "VEC3",
            "max": [
                1.0,
                1.0,
                1.0
            ],
            "min": [
                -1.0,
                -1.0,
                -1.0
            ]
        },
        {
            "bufferView": 6,
            "byteOffset": 0,
            "componentType": 5126,
            "count": 76662,
            "type": "VEC2",
            "max": [
                0.9876999855041504,
                0.9975000023841858
            ],
            "min": [
                0.0015999999595806003,
                0.0070999860763549809
            ]
        },
        {
            "bufferView": 7,
            "byteOffset": 0,
            "componentType": 5125,
            "count": 76662,
            "type": "SCALAR",
            "max": [
                76661
            ],
            "min": [
                0
            ]
        },
        {
            "bufferView": 8,
            "byteOffset": 0,
            "componentType": 5126,
            "count": 21480,
            "type": "VEC3",
            "max": [
                361.47222900390627,
                114.4078140258789,
                241.64602661132813
            ],
            "min": [
                4.843452453613281,
                53.88386535644531,
                -96.18586730957031
            ]
        },
        {
            "bufferView": 9,
            "byteOffset": 0,
            "componentType": 5126,
            "count": 21480,
            "type": "VEC3",
            "max": [
                0.999998927116394,
                0.9998952150344849,
                0.99879390001297
            ],
            "min": [
                -0.9998788833618164,
                -0.9993851184844971,
                -0.9978689551353455
            ]
        },
        {
            "bufferView": 10,
            "byteOffset": 0,
            "componentType": 5126,
            "count": 21480,
            "type": "VEC2",
            "max": [
                0.9952999949455261,
                0.9980000257492065
            ],
            "min": [
                0.01209999993443489,
                0.014199972152709961
            ]
        },
        {
            "bufferView": 11,
            "byteOffset": 0,
            "componentType": 5125,
            "count": 21480,
            "type": "SCALAR",
            "max": [
                21479
            ],
            "min": [
                0
            ]
        },
        {
            "bufferView": 12,
            "byteOffset": 0,
            "componentType": 5126,
            "count": 167022,
            "type": "VEC3",
            "max": [
                346.3846740722656,
                102.44811248779297,
                220.75881958007813
            ],
            "min": [
                14.738269805908204,
                35.96849060058594,
                -52.76773452758789
            ]
        },
        {
            "bufferView": 13,
            "byteOffset": 0,
            "componentType": 5126,
            "count": 167022,
            "type": "VEC3",
            "max": [
                1.0,
                1.0,
                1.0
            ],
            "min": [
                -1.0,
                -1.0,
                -1.0
            ]
        },
        {
            "bufferView": 14,
            "byteOffset": 0,
            "componentType": 5126,
            "count": 167022,
            "type": "VEC2",
            "max": [
                0.9987999796867371,
                0.9991999864578247
            ],
            "min": [
                0.002400000113993883,
                0.0023999810218811037
            ]
        },
        {
            "bufferView": 15,
            "byteOffset": 0,
            "componentType": 5125,
            "count": 167022,
            "type": "SCALAR",
            "max": [
                167021
            ],
            "min": [
                0
            ]
        },
        {
            "bufferView": 16,
            "byteOffset": 0,
            "componentType": 5126,
            "count": 32196,
            "type": "VEC3",
            "max": [
                120.74593353271485,
                238.01467895507813,
                441.2188415527344
            ],
            "min": [
                -177.8912811279297,
                96.95484161376953,
                249.71617126464845
            ]
        },
        {
            "bufferView": 17,
            "byteOffset": 0,
            "componentType": 5126,
            "count": 32196,
            "type": "VEC3",
            "max": [
                0.9999994039535523,
                0.9999966621398926,
                1.0
            ],
            "min": [
                -0.9999994039535523,
                -1.0,
                -0.9999895095825195
            ]
        },
        {
            "bufferView": 18,
            "byteOffset": 0,
            "componentType": 5126,
            "count": 32196,
            "type": "VEC2",
            "max": [
                0.8101000189781189,
                0.9950000047683716
            ],
            "min": [
                0.007000000216066837,
                0.010200023651123047
            ]
        },
        {
            "bufferView": 19,
            "byteOffset": 0,
            "componentType": 5125,
            "count": 32196,
            "type": "SCALAR",
            "max": [
                32195
            ],
            "min": [
                0
            ]
        },
        {
            "bufferView": 20,
            "byteOffset": 0,
            "componentType": 5126,
            "count": 167022,
            "type": "VEC3",
            "max": [
                -71.88142395019531,
                102.44811248779297,
                220.7566375732422
            ],
            "min": [
                -403.5284423828125,
                35.96849060058594,
                -52.76816940307617
            ]
        },
        {
            "bufferView": 21,
            "byteOffset": 0,
            "componentType": 5126,
            "count": 167022,
            "type": "VEC3",
            "max": [
                1.0,
                1.0,
                1.0
            ],
            "min": [
                -1.0,
                -1.0,
                -1.0
            ]
        },
        {
            "bufferView": 22,
            "byteOffset": 0,
            "componentType": 5126,
            "count": 167022,
            "type": "VEC2",
            "max": [
                0.9987999796867371,
                0.9991999864578247
            ],
            "min": [
                0.002400000113993883,
                0.0023999810218811037
            ]
        },
        {
            "bufferView": 23,
            "byteOffset": 0,
            "componentType": 5125,
            "count": 167022,
            "type": "SCALAR",
            "max": [
                167021
            ],
            "min": [
                0
            ]
        },
        {
            "bufferView": 24,
            "byteOffset": 0,
            "componentType": 5126,
            "count": 21480,
            "type": "VEC3",
            "max": [
                -61.98609161376953,
                114.4078140258789,
                241.6437530517578
            ],
            "min": [
                -418.6163635253906,
                53.88386535644531,
                -96.18606567382813
            ]
        },
        {
            "bufferView": 25,
            "byteOffset": 0,
            "componentType": 5126,
            "count": 21480,
            "type": "VEC3",
            "max": [
                0.9998805522918701,
                0.9998940229415894,
                0.99879390001297
            ],
            "min": [
                -0.999998927116394,
                -0.9993914365768433,
                -0.9978699088096619
            ]
        },
        {
            "bufferView": 26,
            "byteOffset": 0,
            "componentType": 5126,
            "count": 21480,
            "type": "VEC2",
            "max": [
                0.9952999949455261,
                0.9980000257492065
            ],
            "min": [
                0.01209999993443489,
                0.014199972152709961
            ]
        },
        {
            "bufferView": 27,
            "byteOffset": 0,
            "componentType": 5125,
            "count": 21480,
            "type": "SCALAR",
            "max": [
                21479
            ],
            "min": [
                0
            ]
        }
    ],
    "buffers": [
        {
            "byteLength": 17492328,
            "uri": "result.bin"
        }
    ],
    "bufferViews": [
        {
            "buffer": 0,
            "byteOffset": 0,
            "byteLength": 432,
            "target": 34962
        },
        {
            "buffer": 0,
            "byteOffset": 432,
            "byteLength": 432,
            "target": 34962
        },
        {
            "buffer": 0,
            "byteOffset": 864,
            "byteLength": 288,
            "target": 34962
        },
        {
            "buffer": 0,
            "byteOffset": 1152,
            "byteLength": 144,
            "target": 34963
        },
        {
            "buffer": 0,
            "byteOffset": 1296,
            "byteLength": 919944,
            "target": 34962
        },
        {
            "buffer": 0,
            "byteOffset": 921240,
            "byteLength": 919944,
            "target": 34962
        },
        {
            "buffer": 0,
            "byteOffset": 1841184,
            "byteLength": 613296,
            "target": 34962
        },
        {
            "buffer": 0,
            "byteOffset": 2454480,
            "byteLength": 306648,
            "target": 34963
        },
        {
            "buffer": 0,
            "byteOffset": 2761128,
            "byteLength": 257760,
            "target": 34962
        },
        {
            "buffer": 0,
            "byteOffset": 3018888,
            "byteLength": 257760,
            "target": 34962
        },
        {
            "buffer": 0,
            "byteOffset": 3276648,
            "byteLength": 171840,
            "target": 34962
        },
        {
            "buffer": 0,
            "byteOffset": 3448488,
            "byteLength": 85920,
            "target": 34963
        },
        {
            "buffer": 0,
            "byteOffset": 3534408,
            "byteLength": 2004264,
            "target": 34962
        },
        {
            "buffer": 0,
            "byteOffset": 5538672,
            "byteLength": 2004264,
            "target": 34962
        },
        {
            "buffer": 0,
            "byteOffset": 7542936,
            "byteLength": 1336176,
            "target": 34962
        },
        {
            "buffer": 0,
            "byteOffset": 8879112,
            "byteLength": 668088,
            "target": 34963
        },
        {
            "buffer": 0,
            "byteOffset": 9547200,
            "byteLength": 386352,
            "target": 34962
        },
        {
            "buffer": 0,
            "byteOffset": 9933552,
            "byteLength": 386352,
            "target": 34962
        },
        {
            "buffer": 0,
            "byteOffset": 10319904,
            "byteLength": 257568,
            "target": 34962
        },
        {
            "buffer": 0,
            "byteOffset": 10577472,
            "byteLength": 128784,
            "target": 34963
        },
        {
            "buffer": 0,
            "byteOffset": 10706256,
            "byteLength": 2004264,
            "target": 34962
        },
        {
            "buffer": 0,
            "byteOffset": 12710520,
            "byteLength": 2004264,
            "target": 34962
        },
        {
            "buffer": 0,
            "byteOffset": 14714784,
            "byteLength": 1336176,
            "target": 34962
        },
        {
            "buffer": 0,
            "byteOffset": 16050960,
            "byteLength": 668088,
            "target": 34963
        },
        {
            "buffer": 0,
            "byteOffset": 16719048,
            "byteLength": 257760,
            "target": 34962
        },
        {
            "buffer": 0,
            "byteOffset": 16976808,
            "byteLength": 257760,
            "target": 34962
        },
        {
            "buffer": 0,
            "byteOffset": 17234568,
            "byteLength": 171840,
            "target": 34962
        },
        {
            "buffer": 0,
            "byteOffset": 17406408,
            "byteLength": 85920,
            "target": 34963
        }
    ],
    "images": [
        {
            "name": "11803_Airplane_body_diff",
            "uri": "data:image/jpeg;base64,"
        },
        {
            "name": "11803_Airplane_wing_big_R_diff",
            "uri": "data:image/jpeg;base64,"
        },
        {
            "name": "11803_Airplane_wing_details_R_diff",
            "uri": "data:image/jpeg;base64,"
        },
        {
            "name": "11803_Airplane_tail_diff",
            "uri": "data:image/jpeg;base64,"
        },
        {
            "name": "11803_Airplane_wing_details_L_diff",
            "uri": "data:image/jpeg;base64,"
        },
        {
            "name": "11803_Airplane_wing_big_L_diff",
            "uri": "data:image/jpeg;base64,"
        }
    ],
    "materials": [
        {
            "name": "Material.001",
            "pbrMetallicRoughness": {
                "baseColorFactor": [
                    0.800000011920929,
                    0.800000011920929,
                    0.800000011920929,
                    1.0
                ],
                "metallicFactor": 0.0,
                "roughnessFactor": 0.75
            }
        },
        {
            "name": "11803_Airplane_body",
            "pbrMetallicRoughness": {
                "baseColorTexture": {
                    "index": 0
                },
                "metallicFactor": 0.0,
                "roughnessFactor": 0.9490000009536743
            }
        },
        {
            "name": "11803_Airplane_wing_R",
            "pbrMetallicRoughness": {
                "baseColorTexture": {
                    "index": 1
                },
                "metallicFactor": 0.0,
                "roughnessFactor": 0.9700000286102295
            }
        },
        {
            "name": "11803_Airplane_wing_details_R",
            "pbrMetallicRoughness": {
                "baseColorTexture": {
                    "index": 2
                },
                "metallicFactor": 0.0,
                "roughnessFactor": 0.9700000286102295
            }
        },
        {
            "name": "11803_Airplane_tail",
            "pbrMetallicRoughness": {
                "baseColorTexture": {
                    "index": 3
                },
                "metallicFactor": 0.0,
                "roughnessFactor": 0.9700000286102295
            }
        },
        {
            "name": "11803_Airplane_wing_details_L",
            "pbrMetallicRoughness": {
                "baseColorTexture": {
                    "index": 4
                },
                "metallicFactor": 0.0,
                "roughnessFactor": 0.9700000286102295
            }
        },
        {
            "name": "11803_Airplane_wing_L",
            "pbrMetallicRoughness": {
                "baseColorTexture": {
                    "index": 5
                },
                "metallicFactor": 0.0,
                "roughnessFactor": 0.9700000286102295
            }
        },
        {
            "name": "material"
        }
    ],
    "meshes": [
        {
            "name": "Cube-Mesh",
            "primitives": [
                {
                    "mode": 4,
                    "material": 0,
                    "indices": 3,
                    "attributes": {
                        "POSITION": 0,
                        "NORMAL": 1,
                        "TEXCOORD_0": 2
                    }
                }
            ]
        },
        {
            "name": "11803_Airplane_v1_l1-Mesh-0",
            "primitives": [
                {
                    "mode": 4,
                    "material": 1,
                    "indices": 7,
                    "attributes": {
                        "POSITION": 4,
                        "NORMAL": 5,
                        "TEXCOORD_0": 6
                    }
                },
                {
                    "mode": 4,
                    "material": 2,
                    "indices": 11,
                    "attributes": {
                        "POSITION": 8,
                        "NORMAL": 9,
                        "TEXCOORD_0": 10
                    }
                },
                {
                    "mode": 4,
                    "material": 3,
                    "indices": 15,
                    "attributes": {
                        "POSITION": 12,
                        "NORMAL": 13,
                        "TEXCOORD_0": 14
                    }
                },
                {
                    "mode": 4,
                    "material": 4,
                    "indices": 19,
                    "attributes": {
                        "POSITION": 16,
                        "NORMAL": 17,
                        "TEXCOORD_0": 18
                    }
                },
                {
                    "mode": 4,
                    "material": 5,
                    "indices": 23,
                    "attributes": {
                        "POSITION": 20,
                        "NORMAL": 21,
                        "TEXCOORD_0": 22
                    }
                },
                {
                    "mode": 4,
                    "material": 6,
                    "indices": 27,
                    "attributes": {
                        "POSITION": 24,
                        "NORMAL": 25,
                        "TEXCOORD_0": 26
                    }
                }
            ]
        }
    ],
    "nodes": [
        {
            "name": "ROOT",
            "children": [
                1,
                2
            ]
        },
        {
            "name": "Cube.001",
            "mesh": 0
        },
        {
            "name": "11803_Airplane_v1_l1",
            "matrix": [
                -1.1920928955078126e-7,
                0.0,
                -1.0000001192092896,
                0.0,
                0.0,
                1.0,
                0.0,
                0.0,
                1.0000001192092896,
                0.0,
                -1.1920928955078126e-7,
                0.0,
                0.0,
                0.0,
                -30.0,
                1.0
            ],
            "mesh": 1
        }
    ],
    "samplers": [
        {
            "magFilter": 9729,
            "minFilter": 9987
        }
    ],
    "scenes": [
        {
            "nodes": [
                0
            ]
        }
    ],
    "textures": [
        {
            "source": 0,
            "sampler": 0
        },
        {
            "source": 1,
            "sampler": 0
        },
        {
            "source": 2,
            "sampler": 0
        },
        {
            "source": 3,
            "sampler": 0
        },
        {
            "source": 4,
            "sampler": 0
        },
        {
            "source": 5,
            "sampler": 0
        }
    ],
    "scene": 0
}